<svg version="1.1" viewBox="0 0 96 96" xmlns="http://www.w3.org/2000/svg" xmlns:xlink="http://www.w3.org/1999/xlink" id="Icons_IceCream" overflow="hidden"><g><path d=" M 65.6 33.2 C 66.5 31 67 28.6 67 26 C 67 15.5 58.5 7 48 7 C 37.5 7 29 15.5 29 26 C 29 28.5 29.5 30.9 30.4 33.2 C 26.7 33.9 24 37.2 24 41 C 24 45.4 27.6 49 32 49 C 35.7 49 38.8 46.4 39.7 43 L 40.2 43 C 41.1 46.4 44.2 49 47.9 49 C 51.6 49 54.7 46.4 55.6 43 L 56.1 43 C 57 46.4 60.1 49 63.8 49 C 68.2 49 71.8 45.4 71.8 41 C 72 37.1 69.2 33.9 65.6 33.2 Z"/><path d=" M 48 53 C 44.9 53 42.1 51.8 40 49.9 C 38.1 51.6 35.7 52.7 33.1 52.9 L 40.2 70.2 L 40.9 71.8 L 48 89 L 61.9 55.3 L 62.9 52.9 C 60.3 52.7 57.9 51.5 56 49.9 C 53.9 51.8 51.1 53 48 53 Z M 49.5 75 C 48.6 75.1 47.7 75.3 46.7 75.4 L 45.1 71.5 C 47.4 71.3 49.4 70.9 51.3 70.6 L 49.5 75 Z M 54.9 61.9 C 51.5 62.7 47.2 63.5 42 63.8 L 40.4 59.9 C 47.7 59.5 53.3 58.3 56.9 57.3 L 54.9 61.9 Z"/></g></svg>