<svg version="1.1" viewBox="0 0 96 96" xmlns="http://www.w3.org/2000/svg" xmlns:xlink="http://www.w3.org/1999/xlink" id="Icons_OfficeWorker" overflow="hidden"><path d=" M 37.27 51.38 C 36.45 51.57 35.62 51.78 34.8 52 C 29.2073 53.632 23.9323 56.2019 19.2 59.6 C 17.227 61.1451 16.0522 63.4946 16 66 L 16 82 L 40.77 82 Z"/><circle cx="48" cy="31" r="16"/><path d=" M 76.8 59.6 C 72.4 56 66.8 53.6 61.2 52 C 60.4 51.76 59.57 51.54 58.73 51.33 L 55.23 82 L 80 82 L 80 66 C 79.9478 63.4946 78.773 61.1451 76.8 59.6 Z M 73 71 L 63 71 L 63 69 L 73 69 Z"/><path d=" M 51.06 56 L 53 50 L 43 50 L 44.94 56 L 51.06 56 Z"/><path d=" M 45.09 58 L 43.73 77.73 L 48 82 L 52.27 77.73 L 50.91 58 L 45.09 58 Z"/></svg>