<svg version="1.1" viewBox="0 0 96 96" xmlns="http://www.w3.org/2000/svg" xmlns:xlink="http://www.w3.org/1999/xlink" id="Icons_BrainInhead" overflow="hidden"><path d=" M 59.7 40.8 L 50.8 40.8 C 47 40.8 43.9 43.8 43.9 47.6 L 43.9 55 L 39.4 55 L 39.4 49.1 C 39.4 47 39.5 44.3 38 42.6 C 37.1 41.6 36.1 40.8 35 40 C 34.2 39.5 33.4 38.9 32.8 38.1 C 32.5 37.7 32.3 37.2 32.1 36.7 C 33.3 36.2 34.6 36.1 35.8 36.2 C 36.4 36.2 36.9 35.8 36.9 35.2 C 37 34.6 36.6 34.1 36.1 33.9 C 34.6 33.7 33 33.9 31.5 34.4 C 31.5 34.2 31.5 34 31.4 33.9 C 31.3 33 31.5 32.1 31.7 31.2 C 32.5 29.1 34.5 28.2 36.4 27.5 C 36.7 27.4 37.1 27.3 37.6 27.2 L 37.9 27.1 L 38 27.1 C 38.5 27.2 38.9 27.3 39.3 27.4 L 39.8 27.5 L 40.4 27.6 C 41.4 28.8 41.9 30.3 41.8 31.8 C 41.7 33.3 41 34.7 39.8 35.7 C 39.4 36.1 39.3 36.8 39.7 37.3 C 40.1 37.7 40.7 37.8 41.2 37.4 C 41.9 36.8 42.5 36.1 42.9 35.3 L 43 35.3 C 44.7 35.1 46.4 34.6 47.9 33.8 C 48.1 33.6 48.3 33.4 48.4 33.1 C 48.5 32.8 48.4 32.5 48.2 32.3 C 47.8 31.8 47.2 31.7 46.7 32 C 45.8 32.5 44.9 32.9 43.8 33 C 43.9 32.7 44 32.3 44 32 C 44.1 30.7 43.9 29.4 43.4 28.3 C 44.2 28.4 45 28.5 45.8 28.5 C 46.5 28.5 47.2 28.4 47.9 28.3 C 49.2 29.9 50.9 31 52.9 31.5 C 55.5 32.8 57.9 34.5 57.9 37.3 C 57.9 37.7 58.1 38.2 58.4 38.4 C 58.8 38.6 59.2 38.6 59.6 38.4 C 60 38.2 60.2 37.7 60.1 37.3 C 60.1 35.1 59.1 33.1 57.4 31.8 C 58.8 31.7 60 31 60.9 30 C 61.3 29.5 61.2 28.8 60.8 28.4 C 60.3 28 59.6 28.1 59.2 28.5 C 58.7 29.1 57.4 29.6 55.5 29.5 C 53.6 29.5 51.7 28.8 50.3 27.6 C 51.9 26.9 53.3 25.7 54.2 24.2 C 54.5 23.7 54.3 23 53.8 22.6 C 53.3 22.3 52.6 22.5 52.3 23 C 50.6 26.1 47 27 41.3 25.6 C 42.6 24.5 43.2 22.8 43 21.1 C 43 20.7 42.8 20.3 42.4 20.1 C 42 19.9 41.6 19.9 41.2 20.2 C 40.8 20.4 40.7 20.9 40.7 21.3 C 40.8 23.9 39.4 24.4 37.1 25.1 C 36.8 25.2 36.4 25.3 36.1 25.4 C 35.5 24 34.2 22.9 32.7 22.5 C 32.3 22.4 31.9 22.5 31.6 22.8 C 31.3 23.1 31.2 23.5 31.3 24 C 31.4 24.4 31.7 24.7 32.2 24.8 C 33 25 33.6 25.6 34 26.3 L 34 26.4 C 32.1 27.2 30.6 28.7 29.9 30.6 C 29.7 31 29.6 31.5 29.6 32 C 29.4 31.8 29.2 31.6 29.1 31.3 C 28.7 30.5 28.4 29.5 28.3 28.6 C 28.2 28.2 27.9 27.8 27.6 27.7 C 27.2 27.5 26.8 27.6 26.5 27.9 C 26.2 28.2 26 28.6 26.2 29 C 26.4 30.2 26.7 31.3 27.3 32.3 C 27.9 33.3 28.7 34.1 29.8 34.6 C 29.9 36 30.4 37.4 31.1 38.7 C 30.4 39.6 29.5 40.3 28.5 40.9 C 28.2 41.1 28 41.5 27.9 41.9 C 27.9 42.3 28.1 42.7 28.5 42.9 C 28.9 43.1 29.3 43.1 29.6 42.8 C 30.6 42.1 31.5 41.4 32.3 40.5 C 32.9 41 33.5 41.4 34.1 41.8 C 35.1 42.4 35.9 43.1 36.7 44 C 37.6 45.1 37.6 47.2 37.6 49 L 37.6 55 L 33 55 C 33 47.6 29.4 47.2 29 47 C 27.5 46.6 23.6 44.5 22.7 40.3 C 22.6 40.1 22.6 39.8 22.6 39.6 C 20.9 37.2 21 33.9 22.9 31.6 C 22.7 30.9 22.6 30.2 22.6 29.5 C 22.6 26.3 24.9 23.5 28.1 22.9 C 29.1 20.1 31.7 18.2 34.6 18.3 C 35.1 18.3 35.7 18.4 36.2 18.5 C 37.4 17.1 39.1 16.3 41 16.1 C 42.9 16 44.7 16.6 46.1 17.9 C 47.9 16.7 50.1 16.4 52.1 17 C 54.2 17.6 55.8 19.2 56.5 21.2 L 56.9 21.2 C 60.7 21.2 63.7 24.2 63.8 28 L 63.8 28.3 C 66.1 29.6 67.4 32.1 67.2 34.7 C 66.4 38.2 63.3 40.9 59.7 40.8 Z M 81 51.3 L 74.1 39.4 L 74.1 39 C 74.5 28 68.9 17.7 59.4 12.2 C 49.9 6.6 38.2 6.6 28.7 12.2 C 19.2 17.7 13.6 28 14 39 C 14 48.4 18.3 57.3 25.8 63 L 25.8 88 L 57.4 88 L 57.4 76.1 L 62.3 76.1 C 65.5 76.1 68.5 74.9 70.7 72.6 C 72.9 70.4 74.1 67.3 74.1 64.2 L 74.1 58.2 L 78.5 58.2 C 81.1 58 83.4 55 81 51.3 Z"/></svg>